# AST/ASF file generated using VICON BodyLanguage
# -----------------------------------------------
:version 1.10
:name VICON
:units
  mass 1.0
  length 0.45
  angle deg
:documentation
   .ast/.asf automatically generated from VICON data using
   VICON BodyBuilder and BodyLanguage model FoxedUp or BRILLIANT.MOD
:root
   order TX TY TZ RX RY RZ
   axis XYZ
   position 0 0 0  
   orientation 0 0 0 
:bonedata
  begin
     id 1 
     name lhipjoint
     direction 0.61886 -0.69539 0.365302 
     length 2.20474 
     axis 0 0 0  XYZ
  end
  begin
     id 2 
     name lfemur
     direction 0.34202 -0.939693 0  
     length 6.65149  
     axis 0 0 20  XYZ
    dof rx ry rz
    limits (-160.0 20.0)
           (-70.0 70.0)
           (-60.0 70.0)
  end
  begin
     id 3 
     name ltibia
     direction 0.34202 -0.939693 0   
     length 6.35814   
     axis 0 0 20   XYZ
    dof rx
    limits (-10.0 170.0)
  end
  begin
     id 4 
     name lfoot
     direction 0.101224 -0.278109 0.955201   
     length 2.18766   
     axis -90 7.62852e-016 20   XYZ
    dof rx rz
    limits (-45.0 90.0)
           (-70.0 20.0)
  end
  begin
     id 5 
     name ltoes
     direction 1.53524e-011 -4.21877e-011 1   
     length 1.09206   
     axis -90 7.62852e-016 20   XYZ
    dof rx
    limits (-90.0 20.0)
  end
  begin
     id 6 
     name rhipjoint
     direction -0.600207 -0.708087 0.371972   
     length 2.1652  
     axis 0 0 0  XYZ 
  end
  begin
     id 7 
     name rfemur
     direction -0.34202 -0.939693 0   
     length 6.54691   
     axis 0 0 -20   XYZ
    dof rx ry rz
    limits (-160.0 20.0)
           (-70.0 70.0)
           (-70.0 60.0)
  end
  begin
     id 8 
     name rtibia
     direction -0.34202 -0.939693 0   
     length 6.37474   
     axis 0 0 -20   XYZ
    dof rx
    limits (-10.0 170.0)
 end
 begin
     id 9 
     name rfoot
     direction -0.111266 -0.3057 0.945604   
     length 2.00903  
     axis -90 -7.62852e-016 -20   XYZ
    dof rx rz
    limits (-45.0 90.0)
           (-20.0 70.0)
  end
  begin
     id 10 
     name rtoes
     direction -1.5362e-011 -4.21913e-011 1   
     length 1.00221   
     axis -90 -7.62852e-016 -20   XYZ
    dof rx
    limits (-90.0 20.0)
  end
  begin
     id 11 
     name lowerback
     direction -0.0224561 0.999731 -0.00577314   
     length 2.10409   
     axis 0 0 0   XYZ
    dof rx ry rz
    limits (-20.0 45.0)
           (-30.0 30.0)
           (-30.0 30.0)
  end
  begin
     id 12 
     name upperback
     direction 0.0213126 0.999185 -0.0342817   
     length 2.09783   
     axis 0 0 0   XYZ
    dof rx ry rz
    limits (-20.0 45.0)
           (-30.0 30.0)
           (-30.0 30.0)
  end
  begin
     id 13 
     name thorax
     direction 0.0312356 0.999036 -0.0308451   
     length 2.09788   
     axis 0 0 0   XYZ
    dof rx ry rz
    limits (-20.0 45.0)
           (-30.0 30.0)
           (-30.0 30.0)
  end
  begin
     id 14 
     name lowerneck
     direction -0.0114419 0.996481 0.0830329   
     length 1.38575   
     axis 0 0 0   XYZ
    dof rx ry rz
    limits (-20.0 45.0)
           (-30.0 30.0)
           (-30.0 30.0)
  end
  begin
     id 15 
     name upperneck
     direction -0.0075675 0.996187 -0.0869092   
     length 1.39401   
     axis 0 0 0   XYZ
    dof rx ry rz
    limits (-20.0 45.0)
           (-30.0 30.0)
           (-30.0 30.0)
  end
  begin
     id 16
     name head
     direction -0.00222073 0.999264 -0.0382974  
     length 1.3964  
     axis 0 0 0   XYZ
    dof rx ry rz
    limits (-20.0 45.0)
           (-30.0 30.0)
           (-30.0 30.0)
  end
  begin
     id 17 
     name lclavicle
     direction 0.965962 0.222138 0.132556  
     length 2.81514  
     axis 0 0 0   XYZ
    dof ry rz
    limits (-20.0 10.0)
           (0.0 20.0)
  end
  begin
     id 18 
     name lhumerus
     direction 1 -4.48972e-011 7.03471e-018   
     length 4.47366   
     axis 180 -30 -90   XYZ
    dof rx ry rz
    limits (-60.0 90.0)
           (-90.0 90.0)
           (-90.0 90.0)
  end
  begin
     id 19
     name lradius
     direction 1 -4.48951e-011 -6.22192e-028   
     length 3.19948   
     axis 180 -30 -90   XYZ
    dof rx
    limits (-10.0 170.0)
  end
  begin
     id 20
     name lwrist
     direction 1 -4.48967e-011 -1.24264e-027   
     length 1.59974   
     axis 1.40095e-015 90 90   XYZ
    dof ry
    limits (-180.0 0.0)
 end
  begin
     id 21 
     name lhand
     direction 1 -4.4897e-011 -2.48528e-027   
     length 0.492667   
     axis 1.58582e-015 90 90   XYZ
    dof rx rz
    limits (-90.0 90.0)
           (-45.0 45.0)
  end
  begin
     id 22 
     name lfingers
     direction 1 -4.48996e-011 -4.97056e-027   
     length 0.397201   
     axis 3.17164e-015 90 90   XYZ
    dof rx
    limits (0.0 90.0)
  end
  begin
     id 23
     name lthumb
     direction 0.707107 -6.34981e-011 0.707107   
     length 0.570303   
     axis -90 45 2.85299e-015   XYZ
    dof rx rz
    limits (-45.0 45.0)
           (-45.0 45.0)
  end
  begin
     id 24 
     name rclavicle
     direction -0.961164 0.229034 0.153972   
     length 3.09348  
     axis 0 0 0   XYZ 
    dof ry rz
    limits (-10.0 20.0)
           (-20.0 0.0)
  end
  begin
     id 25 
     name rhumerus
     direction -1 -4.48971e-011 -9.06263e-028  
     length 4.3269   
     axis 180 30 90   XYZ
    dof rx ry rz
    limits (-90.0 60.0)
           (-90.0 90.0)
           (-90.0 90.0)
  end
  begin
     id 26 
     name rradius
     direction -1 -4.48953e-011 1.44659e-027   
     length 3.1896   
     axis 180 30 90   XYZ
    dof rx
    limits (-10.0 170.0)
  end
  begin
     id 27 
     name rwrist
     direction -1 -4.48988e-011 -1.24264e-027   
     length 1.5948   
     axis 1.40095e-015 -90 -90   XYZ
    dof ry
    limits (-180.0 0.0)
  end
  begin
     id 28
     name rhand
     direction -1 -4.49033e-011 -2.48528e-027   
     length 0.464496   
     axis 1.58582e-015 -90 -90   XYZ
    dof rx rz
    limits (-90.0 90.0)
           (-45.0 45.0)
  end
  begin
     id 29
     name rfingers
     direction -1 -4.48905e-011 -4.97056e-027   
     length 0.374489   
     axis 3.17164e-015 -90 -90   XYZ
    dof rx
    limits (0.0 90.0)
  end
  begin
     id 30
     name rthumb
     direction -0.707107 -6.34909e-011 0.707107   
     length 0.537693   
     axis -90 -45 -2.85299e-015   XYZ
    dof rx rz
    limits (-45.0 45.0)
           (-45.0 45.0)
  end
:hierarchy
  begin
    root lhipjoint rhipjoint lowerback
    lhipjoint lfemur
    lfemur ltibia
    ltibia lfoot
    lfoot ltoes
    rhipjoint rfemur
    rfemur rtibia
    rtibia rfoot
    rfoot rtoes
    lowerback upperback
    upperback thorax
    thorax lowerneck lclavicle rclavicle
    lowerneck upperneck
    upperneck head
    lclavicle lhumerus
    lhumerus lradius
    lradius lwrist
    lwrist lhand lthumb
    lhand lfingers
    rclavicle rhumerus
    rhumerus rradius
    rradius rwrist
    rwrist rhand rthumb
    rhand rfingers
  end

#!OML:ASF G:\acrobat\cartwheel_test 2\Patient 1\Session 2\acrobat4.ASF
:FULLY-SPECIFIED
:DEGREES
3198
root 2.29591 14.4901 -17.2629 5.16683 385.703 1084.56
lowerback -2.42089 -1.56702 -11.7528
upperback 1.53264 -1.71849 2.26958
thorax 3.41559 -1.15479 8.95051
lowerneck -12.4411 -5.36906 -5.86225
upperneck 39.1673 -6.04982 -0.0779585
head 16.3114 -3.27524 0.00216958
rclavicle 4.96962e-014 -5.1684e-015
rhumerus -25.1382 46.2757 -83.395
rradius 111.232
rwrist 341.814
rhand 26.3542 -758.813
rfingers 7.12502
rthumb 50.4015 -59.8222
lclavicle 4.96962e-014 -5.1684e-015
lhumerus -32.7432 -36.0026 99.6284
lradius 110.152
lwrist 15.2398
lhand -14.6783 -724.245
lfingers 7.12502
lthumb 11.475 -694.579
rfemur -38.2783 -8.33472 14.6848
rtibia 72.9933
rfoot -15.9383 -9.77112
rtoes -15.0808
lfemur -371.301 1.08919 -387.716
ltibia 41.4571
lfoot 145.765 -167.323
ltoes -4.05055
3199
root 2.36549 14.4893 -17.0929 5.16037 385.241 1084.43
lowerback -2.65764 -1.74147 -11.5687
upperback 1.5093 -1.93283 2.32331
thorax 3.57183 -1.26707 8.88261
lowerneck -12.5328 -5.31187 -5.69545
upperneck 39.2919 -6.01324 -0.112827
head 16.387 -3.24396 -0.0416654
rclavicle -1.09829e-014 -6.75868e-015
rhumerus -25.8691 46.3336 -84.2112
rradius 111.071
rwrist 342.5
rhand 26.3542 -758.813
rfingers 7.12502
rthumb 50.4015 -59.8222
lclavicle -1.09829e-014 -6.75868e-015
lhumerus -32.3721 -36.6799 99.7509
lradius 109.507
lwrist 16.2075
lhand -13.1838 -723.712
lfingers 7.12502
lthumb 12.916 -694.132
rfemur -39.335 -7.75047 15.0605
rtibia 69.5931
rfoot -17.2249 -10.6342
rtoes -15.6258
lfemur -370.127 1.48895 -387.574
ltibia 40.6097
lfoot 145.595 -166.955
ltoes -4.54042
3200
root 2.43282 14.499 -16.9182 5.24879 384.748 1084.39
lowerback -2.77573 -2.10019 -11.882
upperback 1.35755 -2.40405 2.66661
thorax 3.62395 -1.51225 9.40341
lowerneck -12.5103 -5.11916 -5.5592
upperneck 39.3104 -5.62935 -0.504611
head 16.3533 -3.12542 -0.169722
rclavicle -2.36057e-014 1.19271e-014
rhumerus -26.3671 47.1304 -84.5545
rradius 110.941
rwrist 342.903
rhand 26.3542 -758.813
rfingers 7.12502
rthumb 50.4015 -59.8222
lclavicle -2.36057e-014 1.19271e-014
lhumerus -32.1965 -36.5147 100.199
lradius 108.883
lwrist 16.9629
lhand -11.8835 -723.309
lfingers 7.12502
lthumb 14.1693 -693.813
rfemur -40.2175 -6.72141 15.0979
rtibia 65.6767
rfoot -18.5327 -10.498
rtoes -14.7185
lfemur -368.995 1.80763 -387.518
ltibia 39.7178
lfoot 145.426 -166.464
ltoes -5.35188
3201
root 2.49651 14.5002 -16.7367 5.35313 384.224 1084.4
lowerback -2.84518 -2.36723 -12.182
upperback 1.19166 -2.75896 2.98985
thorax 3.61116 -1.69373 9.90605
lowerneck -12.5123 -5.02037 -5.56893
upperneck 39.2379 -5.36008 -0.849275
head 16.2944 -3.06866 -0.271335
rclavicle 4.47266e-014 -3.18055e-015
rhumerus -26.7193 47.7264 -84.5873
rradius 110.847
rwrist 343.155
rhand 26.3542 -758.813
rfingers 7.12502
rthumb 50.4015 -59.8222
lclavicle 4.47266e-014 -3.18055e-015
lhumerus -32.1385 -36.5464 100.811
lradius 108.187
lwrist 17.3267
lhand -11.3802 -723.453
lfingers 7.12502
lthumb 14.6542 -693.991
rfemur -40.8281 -5.37992 14.8912
rtibia 61.3617
rfoot -19.581 -9.95796
rtoes -12.2033
lfemur -367.775 1.77307 -387.571
ltibia 38.751
lfoot 145.142 -165.717
ltoes -6.4035
3202
root 2.56115 14.478 -16.549 5.54134 383.704 1084.53
lowerback -3.04704 -2.41515 -12.1021
upperback 1.0741 -2.80584 2.97333
thorax 3.60674 -1.70836 9.83231
lowerneck -12.4537 -5.05499 -5.43877
upperneck 39.0766 -5.46006 -0.87909
head 16.1894 -3.09976 -0.319826
rclavicle -5.32246e-014 1.11319e-014
rhumerus -27.2889 47.4497 -84.9335
rradius 110.848
rwrist 343.571
rhand 26.3542 -758.813
rfingers 7.12502
rthumb 50.4015 -59.8222
lclavicle -5.32246e-014 1.11319e-014
lhumerus -32.1684 -37.4587 101.228
lradius 107.519
lwrist 17.4904
lhand -11.3818 -723.743
lfingers 7.12502
lthumb 14.6527 -694.281
rfemur -41.4766 -4.08928 14.5873
rtibia 56.847
rfoot -20.0292 -10.5906
rtoes -13.6618
lfemur -366.483 1.72785 -387.76
ltibia 37.6224
lfoot 144.915 -165.03
ltoes -7.57968
3203
root 2.62723 14.4599 -16.3526 5.77938 383.342 1084.84
lowerback -3.27895 -2.60545 -12.2343
upperback 0.979152 -3.02831 2.92365
thorax 3.70016 -1.82273 9.8278
lowerneck -12.3284 -4.94964 -5.05723
upperneck 38.8318 -5.39548 -0.989889
head 16.0038 -3.03874 -0.413678
rclavicle 2.67365e-014 -1.66979e-014
rhumerus -27.7371 47.4097 -85.4029
rradius 110.805
rwrist 343.983
rhand 26.3542 -758.813
rfingers 7.12502
rthumb 50.4015 -59.8222
lclavicle 2.67365e-014 -1.66979e-014
lhumerus -32.263 -38.1198 101.494
lradius 106.997
lwrist 17.5823
lhand -11.5381 -723.868
lfingers 7.12502
lthumb 14.5021 -694.395
rfemur -42.0415 -2.56554 13.7877
rtibia 52.4756
rfoot -20.246 -11.9173
rtoes -17.3458
lfemur -365.046 1.98899 -388.014
ltibia 36.2922
lfoot 144.813 -164.88
ltoes -8.1073
3204
root 2.69274 14.4628 -16.1479 5.99774 383.153 1085.22
lowerback -3.43085 -2.9708 -12.645
upperback 0.872382 -3.48645 2.98579
thorax 3.82507 -2.06516 10.0876
lowerneck -12.2235 -4.72227 -4.52827
upperneck 38.5542 -5.08546 -1.36773
head 15.7869 -2.89192 -0.605511
rclavicle 2.75814e-014 1.51076e-014
rhumerus -27.9575 47.8344 -85.7934
rradius 110.625
rwrist 344.286
rhand 26.3542 -758.813
rfingers 7.12502
rthumb 50.4015 -59.8222
lclavicle 2.75814e-014 1.51076e-014
lhumerus -32.4364 -38.2796 101.734
lradius 106.593
lwrist 17.6192
lhand -12.0404 -724.184
lfingers 7.12502
lthumb 14.0181 -694.676
rfemur -42.4992 -0.538344 12.3975
rtibia 48.5734
rfoot -20.4991 -12.8179
rtoes -17.2675
lfemur -363.434 2.31879 -388.237
ltibia 34.7191
lfoot 144.878 -164.957
ltoes -8.33891
3205
root 2.76134 14.4706 -15.9322 6.30006 383.018 1085.52
lowerback -3.74402 -3.25802 -12.7706
upperback 0.728278 -3.83284 3.05011
thorax 3.95624 -2.24322 10.1849
lowerneck -12.2786 -4.55964 -4.25758
upperneck 38.3521 -4.83106 -1.6264
head 15.6708 -2.78636 -0.717375
rclavicle 7.70291e-014 -2.70347e-014
rhumerus -28.2418 47.9845 -86.0369
rradius 110.446
rwrist 344.583
rhand 26.3542 -758.813
rfingers 7.12502
rthumb 50.4015 -59.8222
lclavicle 7.70291e-014 -2.70347e-014
lhumerus -32.7785 -38.6016 102.13
lradius 106.271
lwrist 17.516
lhand -12.8039 -724.761
lfingers 7.12502
lthumb 13.2823 -695.204
rfemur -43.1359 2.03229 10.6302
rtibia 45.3837
rfoot -20.8522 -14.6807
rtoes -16.5877
lfemur -361.81 2.59188 -388.378
ltibia 32.9068
lfoot 145.228 -164.923
ltoes -9.0174
3206
root 2.82857 14.4765 -15.7095 6.65993 382.769 1085.78
lowerback -4.16359 -3.54156 -12.9069
upperback 0.575769 -4.16475 3.2521
thorax 4.14887 -2.42086 10.4346
lowerneck -12.5742 -4.32978 -4.24873
upperneck 38.2393 -4.39107 -1.866
head 15.6711 -2.636 -0.753999
rclavicle 3.85642e-014 -1.90833e-014
rhumerus -28.4006 48.3387 -85.9107
rradius 110.338
rwrist 344.781
rhand 26.3542 -758.813
rfingers 7.12502
rthumb 50.4015 -59.8222
lclavicle 3.85642e-014 -1.90833e-014
lhumerus -33.0964 -38.6202 102.642
lradius 105.992
lwrist 17.1545
lhand -13.4977 -725.157
lfingers 7.12502
lthumb 12.6134 -695.558
rfemur -43.9904 6.14555 8.0232
rtibia 42.9951
rfoot -22.1315 -18.7418
rtoes -16.0359
lfemur -360.233 3.00902 -388.486
ltibia 31.0546
lfoot 145.743 -164.788
ltoes -10.1396
3207
root 2.88365 14.4766 -15.4943 6.99005 382.345 1085.99
lowerback -4.33585 -3.90692 -13.3194
upperback 0.361146 -4.6334 3.61758
thorax 4.21539 -2.66566 11.0243
lowerneck -12.8646 -3.88125 -3.99183
upperneck 38.0562 -3.60053 -2.36115
head 15.6174 -2.33982 -0.881241
rclavicle -6.09275e-014 -8.74653e-015
rhumerus -28.3295 49.1759 -85.6701
rradius 110.174
rwrist 344.875
rhand 26.3542 -758.813
rfingers 7.12502
rthumb 50.4015 -59.8222
lclavicle -6.09275e-014 -8.74653e-015
lhumerus -33.2873 -37.8948 103.05
lradius 105.729
lwrist 16.774
lhand -13.9894 -725.432
lfingers 7.12502
lthumb 12.1393 -695.804
rfemur -45.3115 12.635 4.09147
rtibia 41.3364
rfoot -25.2101 -24.5757
rtoes -12.8315
lfemur -358.788 3.07655 -388.631
ltibia 29.4107
lfoot 146.147 -164.365
ltoes -10.8565
3208
root 2.93468 14.4612 -15.2784 7.37129 382.044 1086.21
lowerback -4.43438 -4.23338 -13.5948
upperback 0.074977 -5.06571 3.88373
thorax 4.1403 -2.87211 11.4326
lowerneck -13.0024 -3.42012 -3.63274
upperneck 37.7936 -2.88581 -2.71586
head 15.4955 -2.04047 -0.972314
rclavicle -3.0911e-014 1.59028e-014
rhumerus -28.4515 49.7236 -85.7179
rradius 109.973
rwrist 345.053
rhand 26.3542 -758.813
rfingers 7.12502
rthumb 50.4015 -59.8222
lclavicle -3.0911e-014 1.59028e-014
lhumerus -33.6029 -37.1711 103.481
lradius 105.469
lwrist 16.7643
lhand -14.2833 -725.663
lfingers 7.12502
lthumb 11.856 -696.019
rfemur -47.0349 19.3125 -0.353293
rtibia 40.2913
rfoot -30.427 -30.8163
rtoes -8.93301
lfemur -357.502 2.67103 -388.793
ltibia 28.0485
lfoot 146.45 -164.13
ltoes -11.037
3209
root 2.98894 14.4314 -15.0549 7.65846 382.061 1086.5
lowerback -4.47132 -4.43805 -13.5318
upperback -0.158358 -5.34861 3.90999
thorax 3.9904 -2.98771 11.3925
lowerneck -13.0591 -3.10863 -3.29081
upperneck 37.4721 -2.50395 -2.78499
head 15.3365 -1.84176 -0.990762
rclavicle 1.95803e-014 2.70347e-014
rhumerus -29.1222 49.7258 -86.2971
rradius 109.925
rwrist 345.48
rhand 26.3542 -758.813
rfingers 7.12502
rthumb 50.4015 -59.8222
lclavicle 1.95803e-014 2.70347e-014
lhumerus -34.0944 -36.9641 103.935
lradius 105.226
lwrist 17.2067
lhand -14.2885 -725.794
lfingers 7.12502
lthumb 11.8509 -696.149
rfemur -48.1463 23.2321 -3.29538
rtibia 39.6605
rfoot -35.9881 -35.4722
rtoes -7.85736
lfemur -356.227 2.32933 -388.855
ltibia 27.1089
lfoot 146.917 -164.165
ltoes -12.6044
3210
root 3.04569 14.4078 -14.8281 7.70881 382.133 1086.6
lowerback -4.43356 -4.37135 -12.8314
upperback -0.309168 -5.2956 3.65757
thorax 3.69783 -2.91176 10.7147
lowerneck -13.0533 -2.99881 -2.79387
upperneck 37.101 -2.55301 -2.64051
head 15.1388 -1.77234 -1.01483
rclavicle -2.93207e-014 -3.65764e-014
rhumerus -30.364 48.934 -87.5167
rradius 109.959
rwrist 346.202
rhand 26.3542 -758.813
rfingers 7.12502
rthumb 50.4015 -59.8222
lclavicle -2.93207e-014 -3.65764e-014
lhumerus -34.8284 -37.5247 104.306
lradius 105.037
lwrist 17.9219
lhand -14.296 -725.79
lfingers 7.12502
lthumb 11.8437 -696.145
rfemur -48.4387 24.4168 -4.03144
rtibia 39.3832
rfoot -38.555 -38.2659
rtoes -8.7588
lfemur -354.886 1.98594 -388.697
ltibia 26.4644
lfoot 147.446 -164.218
ltoes -14.4654
3211
root 3.1021 14.3826 -14.5939 7.6291 382.059 1086.47
lowerback -4.44473 -4.23239 -11.934
upperback -0.441515 -5.15167 3.50511
thorax 3.42437 -2.795 10.0459
lowerneck -13.0378 -2.8924 -2.46102
upperneck 36.7379 -2.56087 -2.47865
head 14.9514 -1.70669 -0.996945
rclavicle -2.41026e-014 -2.06736e-014
rhumerus -31.5017 48.1617 -88.5499
rradius 109.896
rwrist 346.889
rhand 26.3542 -758.813
rfingers 7.12502
rthumb 50.4015 -59.8222
lclavicle -2.41026e-014 -2.06736e-014
lhumerus -35.5821 -38.0356 104.779
lradius 104.835
lwrist 18.5916
lhand -14.4667 -725.683
lfingers 7.12502
lthumb 11.6791 -696.029
rfemur -47.8153 23.9015 -3.2405
rtibia 39.3575
rfoot -39.4497 -37.1834
rtoes -5.56315
lfemur -353.53 1.65372 -388.348
ltibia 25.9632
lfoot 147.869 -164.577
ltoes -15.1041
3212
root 3.14956 14.3672 -14.339 7.48537 381.938 1086.35
lowerback -4.55612 -4.28509 -11.717
upperback -0.505668 -5.23055 3.75999
thorax 3.44514 -2.83323 10.1872
lowerneck -13.0774 -2.64896 -2.4531
upperneck 36.3907 -2.1873 -2.52559
head 14.7953 -1.55297 -0.949916
rclavicle 2.37548e-014 3.81667e-014
rhumerus -32.0812 48.1723 -88.8651
rradius 109.772
rwrist 347.352
rhand 26.3542 -758.813
rfingers 7.12502
rthumb 50.4015 -59.8222
lclavicle 2.37548e-014 3.81667e-014
lhumerus -36.0708 -37.8228 105.405
lradius 104.549
lwrist 19.0792
lhand -14.7622 -725.863
lfingers 7.12502
lthumb 11.3941 -696.193
rfemur -46.4765 21.6398 -0.948802
rtibia 39.5715
rfoot -35.1517 -36.6788
rtoes -7.20886
lfemur -352.13 1.65889 -387.834
ltibia 25.5325
lfoot 148.586 -165.175
ltoes -16.8759
